<svg width="813" height="338" viewBox="0 0 813 338" fill="none" xmlns="http://www.w3.org/2000/svg">
<path d="M37.59 66.55C40.25 66.55 45.43 69.42 53.13 75.16C60.97 80.76 64.89 84.96 64.89 87.76C64.89 92.66 66.5 100.71 69.72 111.91C72.94 123.11 76.65 133.26 80.85 142.36C85.05 137.46 92.12 128.43 102.06 115.27C112.14 101.97 120.61 91.47 127.47 83.77C134.33 76.07 139.44 72.22 142.8 72.22C146.16 72.22 149.66 74.11 153.3 77.89C156.94 81.67 158.76 85.45 158.76 89.23C158.76 93.01 158.2 97.91 157.08 103.93C155.96 109.81 154.7 115.34 153.3 120.52C152.04 125.56 150.15 132.49 147.63 141.31C145.25 150.13 143.36 157.13 141.96 162.31C140.7 167.35 139.37 172.81 137.97 178.69C136.57 184.43 135.45 188.98 134.61 192.34C133.91 195.56 133.07 198.99 132.09 202.63C131.25 206.13 130.48 208.86 129.78 210.82C129.08 212.64 128.31 214.32 127.47 215.86C125.93 218.8 123.76 220.27 120.96 220.27C118.16 220.27 115.36 217.54 112.56 212.08C109.9 206.48 108.57 200.67 108.57 194.65C108.57 179.81 112.84 160.14 121.38 135.64C119 138.72 115.57 143.27 111.09 149.29C106.61 155.17 103.25 159.51 101.01 162.31C98.91 164.97 96.25 168.12 93.03 171.76C87.29 178.06 81.69 181.21 76.23 181.21C68.95 181.21 63.77 178.34 60.69 172.6C59.15 169.66 57.05 163.08 54.39 152.86C51.87 142.5 50.05 135.36 48.93 131.44C47.11 145.86 44.66 158.95 41.58 170.71C38.5 182.47 36.47 190.17 35.49 193.81C34.51 197.45 33.18 201.86 31.5 207.04C28.7 215.86 26.18 220.27 23.94 220.27C21.42 220.27 17.92 216.98 13.44 210.4C9.1 203.68 6.93 198.43 6.93 194.65C6.93 190.87 10.99 171.97 19.11 137.95C27.37 103.93 31.5 82.44 31.5 73.48C31.5 68.86 33.53 66.55 37.59 66.55ZM222.15 138.16C224.67 138.16 229.08 132.14 235.38 120.1C241.82 108.06 248.33 96.09 254.91 84.19C261.49 72.15 266.39 66.13 269.61 66.13C274.37 66.13 278.29 68.3 281.37 72.64C284.59 76.98 286.2 82.16 286.2 88.18C286.2 92.38 282.56 100.5 275.28 112.54C268 124.44 258.76 139.21 247.56 156.85C236.36 174.49 227.75 189.47 221.73 201.79C219.91 205.71 216.97 209.77 212.91 213.97C208.85 218.17 204.93 220.27 201.15 220.27C195.55 220.27 192.75 215.79 192.75 206.83C192.75 201.51 198.07 189.12 208.71 169.66C210.39 166.58 211.58 164.27 212.28 162.73C206.12 160.35 200.52 156.43 195.48 150.97C190.44 145.51 186.45 139.35 183.51 132.49C177.35 118.07 174.27 104.07 174.27 90.49C174.27 82.09 175.18 75.93 177 72.01C178.96 68.09 182.88 66.13 188.76 66.13C191.84 66.13 194.15 68.3 195.69 72.64C197.23 76.84 198.63 82.93 199.89 90.91C201.15 98.89 202.9 105.96 205.14 112.12C207.52 118.14 210.39 124.02 213.75 129.76C217.25 135.36 220.05 138.16 222.15 138.16Z" fill="white"/>
<path d="M358.54 336.66C356.14 336.66 352.66 334.8 348.1 331.08C343.66 327.24 341.44 323.46 341.44 319.74C341.44 310.98 342.7 295.86 345.22 274.38C347.74 252.9 349 232.26 349 212.46C349 207.42 350.56 204.9 353.68 204.9C358 204.9 363.16 207.3 369.16 212.1C375.28 216.9 378.34 221.7 378.34 226.5C378.34 228.18 376.36 238.44 372.4 257.28C368.44 276 366.16 291.06 365.56 302.46C371.32 290.82 378.1 281.1 385.9 273.3C393.82 265.5 400.3 261.6 405.34 261.6C408.94 261.6 411.28 269.58 412.36 285.54C412.84 291.54 413.8 297.06 415.24 302.1C416.68 307.02 418.66 309.48 421.18 309.48C425.86 309.48 430 304.5 433.6 294.54C437.32 284.46 439.18 274.08 439.18 263.4C439.18 240.24 432.82 228.66 420.1 228.66C416.38 228.66 412.9 226.74 409.66 222.9C406.54 219.06 404.98 215.64 404.98 212.64C404.98 207.24 408.28 204.54 414.88 204.54C423.76 204.54 431.5 206.22 438.1 209.58C444.82 212.82 450.04 217.32 453.76 223.08C461.2 234.48 464.92 248.52 464.92 265.2C464.92 276.48 462.94 287.64 458.98 298.68C455.02 309.6 449.5 318.66 442.42 325.86C435.46 333.06 428.02 336.66 420.1 336.66C405.46 336.66 397.12 324.24 395.08 299.4L389.5 307.32C376.3 326.88 365.98 336.66 358.54 336.66ZM530.108 305.7C537.068 299.46 543.128 291.66 548.288 282.3C553.448 272.82 556.028 263.76 556.028 255.12C556.028 246.48 554.948 239.82 552.788 235.14C550.628 230.46 547.628 228.12 543.788 228.12C539.948 228.12 534.908 231.6 528.668 238.56C522.548 245.4 516.968 254.4 511.928 265.56C507.008 276.72 504.548 287.4 504.548 297.6C504.548 302.76 505.268 306.96 506.708 310.2C508.148 313.32 509.948 314.88 512.108 314.88C517.148 314.88 523.148 311.82 530.108 305.7ZM512.288 336.66C503.408 336.66 495.488 332.34 488.528 323.7C481.568 314.94 478.088 306.24 478.088 297.6C478.088 286.56 480.188 275.28 484.388 263.76C488.588 252.12 493.808 242.1 500.048 233.7C506.408 225.18 513.368 218.22 520.928 212.82C528.488 207.3 535.448 204.54 541.808 204.54C553.448 204.54 562.988 209.52 570.428 219.48C577.868 229.32 581.588 240.42 581.588 252.78C581.588 265.14 578.468 277.68 572.228 290.4C565.988 303 557.348 313.86 546.308 322.98C535.388 332.1 524.048 336.66 512.288 336.66ZM685.833 330.18C685.833 335.1 682.413 337.56 675.573 337.56C666.213 337.56 656.373 332.7 646.053 322.98C635.853 313.26 628.593 303.12 624.273 292.56C622.353 298.32 621.033 302.22 620.313 304.26C619.593 306.3 618.513 309.54 617.073 313.98C615.633 318.42 614.493 321.72 613.653 323.88C612.933 326.04 612.093 328.32 611.133 330.72C609.333 335.28 607.593 337.56 605.913 337.56C603.153 337.56 599.793 335.28 595.833 330.72C591.993 326.04 590.073 322.26 590.073 319.38C590.073 316.5 591.453 311.16 594.213 303.36C602.373 279.48 607.053 257.7 608.253 238.02C605.973 236.22 603.933 233.7 602.133 230.46C600.333 227.22 599.433 224.52 599.433 222.36C599.433 218.76 604.053 214.98 613.293 211.02C622.653 207.06 633.393 205.08 645.513 205.08C657.753 205.08 667.953 207.96 676.113 213.72C684.273 219.48 688.353 226.98 688.353 236.22C688.353 243.06 686.313 249.66 682.233 256.02C678.273 262.26 673.893 267.18 669.093 270.78C664.413 274.26 660.033 277.44 655.953 280.32C651.993 283.2 650.013 285.06 650.013 285.9C650.013 288.78 650.973 291.54 652.893 294.18C654.813 296.7 657.513 299.7 660.993 303.18C664.473 306.54 667.473 309.42 669.993 311.82C672.513 314.1 674.553 316.02 676.113 317.58C677.793 319.14 679.413 320.76 680.973 322.44C684.213 325.56 685.833 328.14 685.833 330.18ZM660.633 238.02C660.633 232.98 655.713 230.46 645.873 230.46C641.193 230.46 635.613 231.78 629.133 234.42C632.133 238.98 633.633 243.18 633.633 247.02C633.633 253.98 632.673 261.66 630.753 270.06C632.073 269.1 634.533 267.42 638.133 265.02C641.733 262.5 644.493 260.52 646.413 259.08C648.453 257.52 650.733 255.54 653.253 253.14C658.173 248.46 660.633 243.42 660.633 238.02ZM713.299 336.66H712.939C710.299 336.66 706.999 334.26 703.039 329.46C699.079 324.54 697.099 320.28 697.099 316.68C697.099 312.96 700.579 296.52 707.539 267.36C714.619 238.2 718.159 219.78 718.159 212.1C718.159 207.3 719.899 204.9 723.379 204.9C726.259 204.9 729.739 207.78 733.819 213.54C737.899 219.18 739.939 224.58 739.939 229.74C739.939 232.86 738.379 240.84 735.259 253.68C745.099 240.6 754.339 229.68 762.979 220.92C771.619 212.04 777.499 207.6 780.619 207.6C783.859 207.6 787.099 208.98 790.339 211.74C793.579 214.38 795.199 216.72 795.199 218.76C795.199 220.68 792.139 224.52 786.019 230.28C779.899 236.04 772.339 243.36 763.339 252.24C754.339 261.12 747.379 269.4 742.459 277.08C742.459 286.32 747.799 295.62 758.479 304.98C761.719 307.74 766.039 310.62 771.439 313.62C776.839 316.5 781.039 319.02 784.039 321.18C787.159 323.22 788.719 325.32 788.719 327.48C788.719 333.6 784.399 336.66 775.759 336.66C767.119 336.66 757.819 333.18 747.859 326.22C737.899 319.14 730.459 309.78 725.539 298.14C722.419 307.02 720.499 313.5 719.779 317.58C719.059 321.54 718.519 324.18 718.159 325.5C717.919 326.82 717.679 327.9 717.439 328.74C717.199 329.46 716.959 330.3 716.719 331.26C716.479 332.22 716.239 333 715.999 333.6C715.759 334.08 715.519 334.56 715.279 335.04C714.559 336.12 713.899 336.66 713.299 336.66Z" fill="white"/>
</svg>
